<?xml version="1.0" standalone="no"?><svg xmlns:xlink="http://www.w3.org/1999/xlink" xmlns="http://www.w3.org/2000/svg" viewBox="0 0 1000 1142.8440980876978" preserveAspectRatio="xMaxYMax slice"><g transform="scale(1.426771658037076)"><rect x="0" y="0" width="801" height="801" fill="#ffffff"/><rect x="0" y="0" width="100.13" height="100.13" fill="#ffffff"/><path d="M 0 0 A 100.13 100.13 0 0 1 100.13 100.13 L 0 100.13" fill="#ffffff"/><rect x="100.125" y="0" width="100.125" height="100.125" fill="#ffffff"/><rect x="100.13" y="0" width="50.06" height="50.06" fill="#000000"/><polygon points="100.13,0 150.19,0 100.13,50.06" fill="#ffffff"/><rect x="150.19" y="0" width="50.06" height="50.06" fill="#ffffff"/><polygon points="150.19,0 200.25,0 200.25,50.06" fill="#000000"/><rect x="100.13" y="50.06" width="50.06" height="50.06" fill="#ffffff"/><polygon points="100.13,50.06 150.19,100.12 100.13,100.12" fill="#000000"/><rect x="150.19" y="50.06" width="50.06" height="50.06" fill="#ffffff"/><polygon points="200.25,50.06 200.25,100.12 150.19,100.12" fill="#ffffff"/><rect x="200.25" y="0" width="100.13" height="100.13" fill="#ffffff"/><rect x="200.25" y="0" width="100.13" height="100.13" fill="#000000"/><rect x="300.38" y="0" width="100.13" height="100.13" fill="#000000"/><rect x="300.38" y="0" width="100.13" height="100.13" fill="#000000"/><rect x="400.5" y="0" width="100.13" height="100.13" fill="#000000"/><path d="M 400.5 100.13 A 100.13 100.13 0 0 1  500.63 0 L 400.5 100.13 A 100.13 100.13 0 0 0 500.63 0" fill="#ffffff"/><rect x="500.63" y="0" width="100.13" height="100.13" fill="#ffffff"/><path d="M 500.63 0 A 100.13 100.13 0 0 0 600.76 100.13 L 600.76 0" fill="#000000"/><rect x="600.75" y="0" width="100.13" height="100.13" fill="#ffffff"/><polygon points="600.75,0 700.88,0 700.88,100.13" fill="#000000"/><rect x="700.88" y="0" width="100.13" height="100.13" fill="#ffffff"/><polygon points="700.88,0 801.01,0 801.01,100.13" fill="#ffffff"/><rect x="0" y="100.13" width="100.13" height="100.13" fill="#ffffff"/><polygon points="100.13,100.13 100.13,200.26 0,200.26" fill="#ffffff"/><rect x="100.13" y="100.13" width="100.13" height="100.13" fill="#000000"/><rect x="100.13" y="100.13" width="100.13" height="100.13" fill="#000000"/><rect x="200.25" y="100.13" width="100.13" height="100.13" fill="#ffffff"/><polygon points="200.25,100.13 300.38,100.13 300.38,200.26" fill="#ffffff"/><rect x="300.375" y="100.125" width="100.125" height="100.125" fill="#ffffff"/><rect x="300.38" y="100.13" width="50.06" height="50.06" fill="#000000"/><path d="M 300.38 150.19 A 50.06 50.06 0 0 0 350.44 100.13 L 300.38 100.13" fill="#000000"/><rect x="350.44" y="100.13" width="50.06" height="50.06" fill="#ffffff"/><path d="M 350.44 100.13 A 50.06 50.06 0 0 0 400.5 150.19 L 400.5 100.13" fill="#000000"/><rect x="300.38" y="150.19" width="50.06" height="50.06" fill="#ffffff"/><path d="M 300.38 150.19 A 50.06 50.06 0 0 1 350.44 200.25 L 300.38 200.25" fill="#ffffff"/><rect x="350.44" y="150.19" width="50.06" height="50.06" fill="#000000"/><path d="M 350.44 200.25 A 50.06 50.06 0 0 1  400.5 150.19 L 400.5 200.25" fill="#000000"/><rect x="400.5" y="100.125" width="100.125" height="100.125" fill="#ffffff"/><rect x="400.5" y="100.13" width="50.06" height="50.06" fill="#000000"/><path d="M 400.5 150.19 A 50.06 50.06 0 0 0 450.56 100.13 L 400.5 100.13" fill="#000000"/><rect x="450.56" y="100.13" width="50.06" height="50.06" fill="#ffffff"/><path d="M 450.56 100.13 A 50.06 50.06 0 0 0 500.62 150.19 L 500.62 100.13" fill="#000000"/><rect x="400.5" y="150.19" width="50.06" height="50.06" fill="#ffffff"/><path d="M 400.5 150.19 A 50.06 50.06 0 0 1 450.56 200.25 L 400.5 200.25" fill="#ffffff"/><rect x="450.56" y="150.19" width="50.06" height="50.06" fill="#ffffff"/><path d="M 450.56 200.25 A 50.06 50.06 0 0 1  500.62 150.19 L 500.62 200.25" fill="#ffffff"/><rect x="500.625" y="100.125" width="100.125" height="100.125" fill="#ffffff"/><rect x="500.63" y="100.13" width="50.06" height="50.06" fill="#ffffff"/><path d="M 500.63 150.19 A 50.06 50.06 0 0 1 550.69 100.13 L 550.69 112.645 A 37.545 37.545 0 0 0 513.145 150.19" fill="#000000"/><rect x="550.69" y="100.13" width="50.06" height="50.06" fill="#000000"/><path d="M 550.69 100.13 A 50.06 50.06 0 0 1 600.75 150.19 L 588.235 150.19 A 37.545 37.545 0 0 0 550.69 112.645" fill="#ffffff"/><rect x="500.63" y="150.19" width="50.06" height="50.06" fill="#ffffff"/><path d="M 500.63 150.19 A 50.06 50.06 0 0 0 550.69 200.25 L 550.69 187.735 A 37.545 37.545 0 0 1 513.145 150.19" fill="#ffffff"/><rect x="550.69" y="150.19" width="50.06" height="50.06" fill="#ffffff"/><path d="M 550.69 200.25 A 50.06 50.06 0 0 0 600.75 150.19 L 588.235 150.19 A 37.545 37.545 0 0 1 550.69 187.735" fill="#000000"/><rect x="600.75" y="100.125" width="100.125" height="100.125" fill="#ffffff"/><rect x="600.75" y="100.13" width="50.06" height="50.06" fill="#000000"/><path d="M 600.75 100.13 A 50.06 50.06 0 0 0 650.81 150.19 L 650.81 100.13" fill="#000000"/><rect x="650.81" y="100.13" width="50.06" height="50.06" fill="#ffffff"/><path d="M 650.81 150.19 A 50.06 50.06 0 0 0 700.8699999999999 100.13 L 650.81 100.13" fill="#ffffff"/><rect x="600.75" y="150.19" width="50.06" height="50.06" fill="#000000"/><path d="M 600.75 200.25 A 50.06 50.06 0 0 1  650.81 150.19 L 650.81 200.25" fill="#000000"/><rect x="650.81" y="150.19" width="50.06" height="50.06" fill="#ffffff"/><path d="M 650.81 150.19 A 50.06 50.06 0 0 1 700.8699999999999 200.25 L 650.81 200.25" fill="#000000"/><rect x="700.875" y="100.125" width="100.125" height="100.125" fill="#ffffff"/><rect x="700.88" y="100.13" width="50.06" height="50.06" fill="#ffffff"/><path d="M 700.88 150.19 A 50.06 50.06 0 0 1 750.94 100.13 L 750.94 112.645 A 37.545 37.545 0 0 0 713.395 150.19" fill="#ffffff"/><rect x="750.94" y="100.13" width="50.06" height="50.06" fill="#ffffff"/><path d="M 750.94 100.13 A 50.06 50.06 0 0 1 801 150.19 L 788.485 150.19 A 37.545 37.545 0 0 0 750.94 112.645" fill="#000000"/><rect x="700.88" y="150.19" width="50.06" height="50.06" fill="#000000"/><path d="M 700.88 150.19 A 50.06 50.06 0 0 0 750.94 200.25 L 750.94 187.735 A 37.545 37.545 0 0 1 713.395 150.19" fill="#ffffff"/><rect x="750.94" y="150.19" width="50.06" height="50.06" fill="#ffffff"/><path d="M 750.94 200.25 A 50.06 50.06 0 0 0 801 150.19 L 788.485 150.19 A 37.545 37.545 0 0 1 750.94 187.735" fill="#000000"/><rect x="0" y="200.25" width="100.125" height="100.125" fill="#ffffff"/><rect x="0" y="200.25" width="50.06" height="50.06" fill="#ffffff"/><path d="M 0 250.31 A 50.06 50.06 0 0 1 50.06 200.25 L 50.06 212.765 A 37.545 37.545 0 0 0 12.515 250.31" fill="#000000"/><rect x="50.06" y="200.25" width="50.06" height="50.06" fill="#000000"/><path d="M 50.06 200.25 A 50.06 50.06 0 0 1 100.12 250.31 L 87.605 250.31 A 37.545 37.545 0 0 0 50.06 212.765" fill="#000000"/><rect x="0" y="250.31" width="50.06" height="50.06" fill="#000000"/><path d="M 0 250.31 A 50.06 50.06 0 0 0 50.06 300.37 L 50.06 287.855 A 37.545 37.545 0 0 1 12.515 250.31" fill="#000000"/><rect x="50.06" y="250.31" width="50.06" height="50.06" fill="#000000"/><path d="M 50.06 300.37 A 50.06 50.06 0 0 0 100.12 250.31 L 87.605 250.31 A 37.545 37.545 0 0 1 50.06 287.855" fill="#000000"/><rect x="100.125" y="200.25" width="100.125" height="100.125" fill="#ffffff"/><rect x="100.13" y="200.25" width="50.06" height="50.06" fill="#ffffff"/><path d="M 100.13 200.25 A 50.06 50.06 0 0 0 150.19 250.31 L 150.19 200.25" fill="#000000"/><rect x="150.19" y="200.25" width="50.06" height="50.06" fill="#ffffff"/><path d="M 150.19 250.31 A 50.06 50.06 0 0 0 200.25 200.25 L 150.19 200.25" fill="#ffffff"/><rect x="100.13" y="250.31" width="50.06" height="50.06" fill="#ffffff"/><path d="M 100.13 300.37 A 50.06 50.06 0 0 1  150.19 250.31 L 150.19 300.37" fill="#ffffff"/><rect x="150.19" y="250.31" width="50.06" height="50.06" fill="#ffffff"/><path d="M 150.19 250.31 A 50.06 50.06 0 0 1 200.25 300.37 L 150.19 300.37" fill="#ffffff"/><rect x="200.25" y="200.25" width="100.13" height="100.13" fill="#ffffff"/><rect x="200.25" y="200.25" width="100.13" height="100.13" fill="#000000"/><rect x="300.38" y="200.25" width="100.13" height="100.13" fill="#ffffff"/><polygon points="400.51,200.25 400.51,300.38 300.38,300.38" fill="#000000"/><rect x="400.5" y="200.25" width="100.125" height="100.125" fill="#ffffff"/><rect x="400.5" y="200.25" width="50.06" height="50.06" fill="#000000"/><polygon points="400.5,200.25 450.56,200.25 400.5,250.31" fill="#ffffff"/><rect x="450.56" y="200.25" width="50.06" height="50.06" fill="#ffffff"/><polygon points="450.56,200.25 500.62,200.25 500.62,250.31" fill="#ffffff"/><rect x="400.5" y="250.31" width="50.06" height="50.06" fill="#000000"/><polygon points="400.5,250.31 450.56,300.37 400.5,300.37" fill="#ffffff"/><rect x="450.56" y="250.31" width="50.06" height="50.06" fill="#ffffff"/><polygon points="500.62,250.31 500.62,300.37 450.56,300.37" fill="#000000"/><rect x="500.63" y="200.25" width="100.13" height="100.13" fill="#000000"/><polygon points="500.63,200.25 600.76,200.25 500.63,300.38" fill="#ffffff"/><rect x="600.75" y="200.25" width="100.125" height="100.125" fill="#ffffff"/><rect x="600.75" y="200.25" width="50.06" height="50.06" fill="#ffffff"/><path d="M 600.75 250.31 A 50.06 50.06 0 0 0 650.81 200.25 L 600.75 200.25" fill="#ffffff"/><rect x="650.81" y="200.25" width="50.06" height="50.06" fill="#ffffff"/><path d="M 650.81 200.25 A 50.06 50.06 0 0 0 700.8699999999999 250.31 L 700.8699999999999 200.25" fill="#ffffff"/><rect x="600.75" y="250.31" width="50.06" height="50.06" fill="#ffffff"/><path d="M 600.75 250.31 A 50.06 50.06 0 0 1 650.81 300.37 L 600.75 300.37" fill="#ffffff"/><rect x="650.81" y="250.31" width="50.06" height="50.06" fill="#ffffff"/><path d="M 650.81 300.37 A 50.06 50.06 0 0 1  700.8699999999999 250.31 L 700.8699999999999 300.37" fill="#000000"/><rect x="700.88" y="200.25" width="100.13" height="100.13" fill="#000000"/><rect x="700.88" y="200.25" width="100.13" height="100.13" fill="#ffffff"/><rect x="0" y="300.38" width="100.13" height="100.13" fill="#000000"/><rect x="0" y="300.38" width="100.13" height="100.13" fill="#ffffff"/><rect x="100.13" y="300.38" width="100.13" height="100.13" fill="#ffffff"/><rect x="100.13" y="300.38" width="100.13" height="100.13" fill="#000000"/><rect x="200.25" y="300.38" width="100.13" height="100.13" fill="#ffffff"/><path d="M 200.25 400.51 A 100.13 100.13 0 0 1  300.38 300.38 L 200.25 400.51 A 100.13 100.13 0 0 0 300.38 300.38" fill="#000000"/><rect x="300.375" y="300.375" width="100.125" height="100.125" fill="#ffffff"/><rect x="300.38" y="300.38" width="50.06" height="50.06" fill="#000000"/><polygon points="300.38,300.38 350.44,300.38 300.38,350.44" fill="#ffffff"/><rect x="350.44" y="300.38" width="50.06" height="50.06" fill="#ffffff"/><polygon points="400.5,300.38 400.5,350.44 350.44,350.44" fill="#ffffff"/><rect x="300.38" y="350.44" width="50.06" height="50.06" fill="#000000"/><polygon points="300.38,350.44 350.44,350.44 350.44,400.5" fill="#ffffff"/><rect x="350.44" y="350.44" width="50.06" height="50.06" fill="#ffffff"/><polygon points="350.44,350.44 400.5,400.5 350.44,400.5" fill="#ffffff"/><rect x="400.5" y="300.38" width="100.13" height="100.13" fill="#000000"/><polygon points="500.63,300.38 500.63,400.51 400.5,400.51" fill="#ffffff"/><rect x="500.625" y="300.375" width="100.125" height="100.125" fill="#ffffff"/><rect x="500.63" y="300.38" width="50.06" height="50.06" fill="#000000"/><polygon points="500.63,300.38 550.69,300.38 500.63,350.44" fill="#000000"/><rect x="550.69" y="300.38" width="50.06" height="50.06" fill="#ffffff"/><polygon points="550.69,300.38 600.75,300.38 600.75,350.44" fill="#000000"/><rect x="500.63" y="350.44" width="50.06" height="50.06" fill="#ffffff"/><polygon points="550.69,350.44 550.69,400.5 500.63,400.5" fill="#ffffff"/><rect x="550.69" y="350.44" width="50.06" height="50.06" fill="#ffffff"/><polygon points="550.69,350.44 600.75,400.5 550.69,400.5" fill="#000000"/><rect x="600.75" y="300.38" width="100.13" height="100.13" fill="#ffffff"/><rect x="600.75" y="300.38" width="100.13" height="100.13" fill="#ffffff"/><rect x="700.88" y="300.38" width="100.13" height="100.13" fill="#000000"/><rect x="700.88" y="300.38" width="100.13" height="100.13" fill="#000000"/><rect x="0" y="400.5" width="100.125" height="100.125" fill="#ffffff"/><rect x="0" y="400.5" width="50.06" height="50.06" fill="#ffffff"/><path d="M 0 450.56 A 50.06 50.06 0 0 1  50.06 400.5 L 50.06 450.56" fill="#ffffff"/><rect x="50.06" y="400.5" width="50.06" height="50.06" fill="#000000"/><path d="M 50.06 400.5 A 50.06 50.06 0 0 1 100.12 450.56 L 50.06 450.56" fill="#ffffff"/><rect x="0" y="450.56" width="50.06" height="50.06" fill="#ffffff"/><path d="M 0 450.56 A 50.06 50.06 0 0 0 50.06 500.62 L 50.06 450.56" fill="#000000"/><rect x="50.06" y="450.56" width="50.06" height="50.06" fill="#ffffff"/><path d="M 50.06 500.62 A 50.06 50.06 0 0 0 100.12 450.56 L 50.06 450.56" fill="#ffffff"/><rect x="100.125" y="400.5" width="100.125" height="100.125" fill="#ffffff"/><rect x="100.13" y="400.5" width="50.06" height="50.06" fill="#ffffff"/><path d="M 100.13 450.56 A 50.06 50.06 0 0 1 150.19 400.5 L 150.19 413.015 A 37.545 37.545 0 0 0 112.645 450.56" fill="#000000"/><rect x="150.19" y="400.5" width="50.06" height="50.06" fill="#000000"/><path d="M 150.19 400.5 A 50.06 50.06 0 0 1 200.25 450.56 L 187.735 450.56 A 37.545 37.545 0 0 0 150.19 413.015" fill="#000000"/><rect x="100.13" y="450.56" width="50.06" height="50.06" fill="#ffffff"/><path d="M 100.13 450.56 A 50.06 50.06 0 0 0 150.19 500.62 L 150.19 488.105 A 37.545 37.545 0 0 1 112.645 450.56" fill="#ffffff"/><rect x="150.19" y="450.56" width="50.06" height="50.06" fill="#ffffff"/><path d="M 150.19 500.62 A 50.06 50.06 0 0 0 200.25 450.56 L 187.735 450.56 A 37.545 37.545 0 0 1 150.19 488.105" fill="#ffffff"/><rect x="200.25" y="400.5" width="100.13" height="100.13" fill="#ffffff"/><path d="M 200.25 500.63 A 100.13 100.13 0 0 0 300.38 400.5 L 200.25 400.5" fill="#ffffff"/><rect x="300.38" y="400.5" width="100.13" height="100.13" fill="#000000"/><path d="M 300.38 500.63 A 100.13 100.13 0 0 1  400.51 400.5 L 400.51 500.63" fill="#ffffff"/><rect x="400.5" y="400.5" width="100.125" height="100.125" fill="#ffffff"/><rect x="400.5" y="400.5" width="50.06" height="50.06" fill="#000000"/><polygon points="400.5,400.5 450.56,400.5 400.5,450.56" fill="#ffffff"/><rect x="450.56" y="400.5" width="50.06" height="50.06" fill="#000000"/><polygon points="500.62,400.5 500.62,450.56 450.56,450.56" fill="#ffffff"/><rect x="400.5" y="450.56" width="50.06" height="50.06" fill="#000000"/><polygon points="400.5,450.56 450.56,450.56 450.56,500.62" fill="#000000"/><rect x="450.56" y="450.56" width="50.06" height="50.06" fill="#ffffff"/><polygon points="450.56,450.56 500.62,500.62 450.56,500.62" fill="#000000"/><rect x="500.63" y="400.5" width="100.13" height="100.13" fill="#000000"/><rect x="500.63" y="400.5" width="100.13" height="100.13" fill="#ffffff"/><rect x="600.75" y="400.5" width="100.125" height="100.125" fill="#ffffff"/><rect x="600.75" y="400.5" width="50.06" height="50.06" fill="#000000"/><path d="M 600.75 450.56 A 50.06 50.06 0 0 1  650.81 400.5 L 650.81 450.56" fill="#ffffff"/><rect x="650.81" y="400.5" width="50.06" height="50.06" fill="#ffffff"/><path d="M 650.81 400.5 A 50.06 50.06 0 0 1 700.8699999999999 450.56 L 650.81 450.56" fill="#ffffff"/><rect x="600.75" y="450.56" width="50.06" height="50.06" fill="#000000"/><path d="M 600.75 450.56 A 50.06 50.06 0 0 0 650.81 500.62 L 650.81 450.56" fill="#ffffff"/><rect x="650.81" y="450.56" width="50.06" height="50.06" fill="#ffffff"/><path d="M 650.81 500.62 A 50.06 50.06 0 0 0 700.8699999999999 450.56 L 650.81 450.56" fill="#ffffff"/><rect x="700.88" y="400.5" width="100.13" height="100.13" fill="#ffffff"/><polygon points="700.88,400.5 801.01,400.5 801.01,500.63" fill="#000000"/><rect x="0" y="500.63" width="100.13" height="100.13" fill="#000000"/><rect x="0" y="500.63" width="100.13" height="100.13" fill="#000000"/><rect x="100.13" y="500.63" width="100.13" height="100.13" fill="#ffffff"/><path d="M 100.13 500.63 A 100.13 100.13 0 0 0 200.26 600.76 L 200.26 500.63" fill="#000000"/><rect x="200.25" y="500.63" width="100.13" height="100.13" fill="#000000"/><polygon points="300.38,500.63 300.38,600.76 200.25,600.76" fill="#ffffff"/><rect x="300.38" y="500.63" width="100.13" height="100.13" fill="#ffffff"/><polygon points="300.38,500.63 400.51,500.63 400.51,600.76" fill="#000000"/><rect x="400.5" y="500.63" width="100.13" height="100.13" fill="#000000"/><polygon points="500.63,500.63 500.63,600.76 400.5,600.76" fill="#000000"/><rect x="500.625" y="500.625" width="100.125" height="100.125" fill="#ffffff"/><rect x="500.63" y="500.63" width="50.06" height="50.06" fill="#000000"/><path d="M 500.63 550.69 A 50.06 50.06 0 0 0 550.69 500.63 L 500.63 500.63" fill="#000000"/><rect x="550.69" y="500.63" width="50.06" height="50.06" fill="#ffffff"/><path d="M 550.69 500.63 A 50.06 50.06 0 0 0 600.75 550.69 L 600.75 500.63" fill="#ffffff"/><rect x="500.63" y="550.69" width="50.06" height="50.06" fill="#ffffff"/><path d="M 500.63 550.69 A 50.06 50.06 0 0 1 550.69 600.75 L 500.63 600.75" fill="#ffffff"/><rect x="550.69" y="550.69" width="50.06" height="50.06" fill="#000000"/><path d="M 550.69 600.75 A 50.06 50.06 0 0 1  600.75 550.69 L 600.75 600.75" fill="#ffffff"/><rect x="600.75" y="500.63" width="100.13" height="100.13" fill="#ffffff"/><path d="M 600.75 500.63 A 100.13 100.13 0 0 1  700.88 600.76 L 600.75 500.63 A 100.13 100.13 0 0 0 700.88 600.76" fill="#ffffff"/><rect x="700.875" y="500.625" width="100.125" height="100.125" fill="#ffffff"/><rect x="700.88" y="500.63" width="50.06" height="50.06" fill="#000000"/><path d="M 700.88 550.69 A 50.06 50.06 0 0 0 750.94 500.63 L 700.88 500.63" fill="#000000"/><rect x="750.94" y="500.63" width="50.06" height="50.06" fill="#000000"/><path d="M 750.94 500.63 A 50.06 50.06 0 0 0 801 550.69 L 801 500.63" fill="#ffffff"/><rect x="700.88" y="550.69" width="50.06" height="50.06" fill="#ffffff"/><path d="M 700.88 550.69 A 50.06 50.06 0 0 1 750.94 600.75 L 700.88 600.75" fill="#000000"/><rect x="750.94" y="550.69" width="50.06" height="50.06" fill="#000000"/><path d="M 750.94 600.75 A 50.06 50.06 0 0 1  801 550.69 L 801 600.75" fill="#ffffff"/><rect x="0" y="600.75" width="100.125" height="100.125" fill="#ffffff"/><rect x="0" y="600.75" width="50.06" height="50.06" fill="#ffffff"/><polygon points="0,600.75 50.06,600.75 0,650.81" fill="#ffffff"/><rect x="50.06" y="600.75" width="50.06" height="50.06" fill="#000000"/><polygon points="50.06,600.75 100.12,600.75 100.12,650.81" fill="#000000"/><rect x="0" y="650.81" width="50.06" height="50.06" fill="#000000"/><polygon points="0,650.81 50.06,700.8699999999999 0,700.8699999999999" fill="#ffffff"/><rect x="50.06" y="650.81" width="50.06" height="50.06" fill="#000000"/><polygon points="100.12,650.81 100.12,700.8699999999999 50.06,700.8699999999999" fill="#000000"/><rect x="100.125" y="600.75" width="100.125" height="100.125" fill="#ffffff"/><rect x="100.13" y="600.75" width="50.06" height="50.06" fill="#000000"/><path d="M 100.13 650.81 A 50.06 50.06 0 0 1  150.19 600.75 L 150.19 650.81" fill="#000000"/><rect x="150.19" y="600.75" width="50.06" height="50.06" fill="#ffffff"/><path d="M 150.19 600.75 A 50.06 50.06 0 0 1 200.25 650.81 L 150.19 650.81" fill="#ffffff"/><rect x="100.13" y="650.81" width="50.06" height="50.06" fill="#ffffff"/><path d="M 100.13 650.81 A 50.06 50.06 0 0 0 150.19 700.8699999999999 L 150.19 650.81" fill="#ffffff"/><rect x="150.19" y="650.81" width="50.06" height="50.06" fill="#ffffff"/><path d="M 150.19 700.8699999999999 A 50.06 50.06 0 0 0 200.25 650.81 L 150.19 650.81" fill="#ffffff"/><rect x="200.25" y="600.75" width="100.13" height="100.13" fill="#000000"/><path d="M 200.25 600.75 A 100.13 100.13 0 0 1  300.38 700.88 L 200.25 600.75 A 100.13 100.13 0 0 0 300.38 700.88" fill="#000000"/><rect x="300.38" y="600.75" width="100.13" height="100.13" fill="#ffffff"/><path d="M 300.38 600.75 A 100.13 100.13 0 0 1  400.51 700.88 L 300.38 600.75 A 100.13 100.13 0 0 0 400.51 700.88" fill="#000000"/><rect x="400.5" y="600.75" width="100.13" height="100.13" fill="#ffffff"/><polygon points="500.63,600.75 500.63,700.88 400.5,700.88" fill="#ffffff"/><rect x="500.625" y="600.75" width="100.125" height="100.125" fill="#ffffff"/><rect x="500.63" y="600.75" width="50.06" height="50.06" fill="#000000"/><path d="M 500.63 650.81 A 50.06 50.06 0 0 0 550.69 600.75 L 500.63 600.75" fill="#000000"/><rect x="550.69" y="600.75" width="50.06" height="50.06" fill="#000000"/><path d="M 550.69 600.75 A 50.06 50.06 0 0 0 600.75 650.81 L 600.75 600.75" fill="#ffffff"/><rect x="500.63" y="650.81" width="50.06" height="50.06" fill="#000000"/><path d="M 500.63 650.81 A 50.06 50.06 0 0 1 550.69 700.8699999999999 L 500.63 700.8699999999999" fill="#000000"/><rect x="550.69" y="650.81" width="50.06" height="50.06" fill="#000000"/><path d="M 550.69 700.8699999999999 A 50.06 50.06 0 0 1  600.75 650.81 L 600.75 700.8699999999999" fill="#000000"/><rect x="600.75" y="600.75" width="100.13" height="100.13" fill="#ffffff"/><rect x="600.75" y="600.75" width="100.13" height="100.13" fill="#ffffff"/><rect x="700.88" y="600.75" width="100.13" height="100.13" fill="#ffffff"/><path d="M 700.88 700.88 A 100.13 100.13 0 0 1  801.01 600.75 L 700.88 700.88 A 100.13 100.13 0 0 0 801.01 600.75" fill="#000000"/><rect x="0" y="700.88" width="100.13" height="100.13" fill="#ffffff"/><rect x="0" y="700.88" width="100.13" height="100.13" fill="#ffffff"/><rect x="100.13" y="700.88" width="100.13" height="100.13" fill="#000000"/><rect x="100.13" y="700.88" width="100.13" height="100.13" fill="#000000"/><rect x="200.25" y="700.875" width="100.125" height="100.125" fill="#ffffff"/><rect x="200.25" y="700.88" width="50.06" height="50.06" fill="#ffffff"/><path d="M 200.25 700.88 A 50.06 50.06 0 0 0 250.31 750.94 L 250.31 700.88" fill="#ffffff"/><rect x="250.31" y="700.88" width="50.06" height="50.06" fill="#ffffff"/><path d="M 250.31 750.94 A 50.06 50.06 0 0 0 300.37 700.88 L 250.31 700.88" fill="#ffffff"/><rect x="200.25" y="750.94" width="50.06" height="50.06" fill="#ffffff"/><path d="M 200.25 801 A 50.06 50.06 0 0 1  250.31 750.94 L 250.31 801" fill="#ffffff"/><rect x="250.31" y="750.94" width="50.06" height="50.06" fill="#ffffff"/><path d="M 250.31 750.94 A 50.06 50.06 0 0 1 300.37 801 L 250.31 801" fill="#ffffff"/><rect x="300.375" y="700.875" width="100.125" height="100.125" fill="#ffffff"/><rect x="300.38" y="700.88" width="50.06" height="50.06" fill="#ffffff"/><polygon points="300.38,700.88 350.44,700.88 300.38,750.94" fill="#000000"/><rect x="350.44" y="700.88" width="50.06" height="50.06" fill="#ffffff"/><polygon points="350.44,700.88 400.5,700.88 400.5,750.94" fill="#ffffff"/><rect x="300.38" y="750.94" width="50.06" height="50.06" fill="#000000"/><polygon points="300.38,750.94 350.44,801 300.38,801" fill="#000000"/><rect x="350.44" y="750.94" width="50.06" height="50.06" fill="#000000"/><polygon points="400.5,750.94 400.5,801 350.44,801" fill="#000000"/><rect x="400.5" y="700.88" width="100.13" height="100.13" fill="#000000"/><rect x="400.5" y="700.88" width="100.13" height="100.13" fill="#ffffff"/><rect x="500.63" y="700.88" width="100.13" height="100.13" fill="#000000"/><polygon points="500.63,700.88 600.76,700.88 600.76,801.01" fill="#000000"/><rect x="600.75" y="700.88" width="100.13" height="100.13" fill="#000000"/><polygon points="600.75,700.88 700.88,801.01 600.75,801.01" fill="#ffffff"/><rect x="700.875" y="700.875" width="100.125" height="100.125" fill="#ffffff"/><rect x="700.88" y="700.88" width="50.06" height="50.06" fill="#000000"/><path d="M 700.88 750.94 A 50.06 50.06 0 0 0 750.94 700.88 L 700.88 700.88" fill="#ffffff"/><rect x="750.94" y="700.88" width="50.06" height="50.06" fill="#ffffff"/><path d="M 750.94 700.88 A 50.06 50.06 0 0 0 801 750.94 L 801 700.88" fill="#000000"/><rect x="700.88" y="750.94" width="50.06" height="50.06" fill="#ffffff"/><path d="M 700.88 750.94 A 50.06 50.06 0 0 1 750.94 801 L 700.88 801" fill="#ffffff"/><rect x="750.94" y="750.94" width="50.06" height="50.06" fill="#000000"/><path d="M 750.94 801 A 50.06 50.06 0 0 1  801 750.94 L 801 801" fill="#000000"/></g></svg>